<?xml version="1.0" encoding="utf-8"?>
<!-- Generator: Adobe Illustrator 22.0.1, SVG Export Plug-In . SVG Version: 6.00 Build 0)  -->
<svg version="1.1" xmlns="http://www.w3.org/2000/svg" xmlns:xlink="http://www.w3.org/1999/xlink" x="0px" y="0px"
	 viewBox="0 0 512 512" style="enable-background:new 0 0 512 512;" xml:space="preserve">
<style type="text/css">
	.st0{fill:#2C5163;}
	.st1{fill:#FFFFFF;}
</style>
<g id="Capa_1">
</g>
<g id="圖層_2">
	<g>
		<path class="st0" d="M255.3,510.7L255.3,510.7C116.5,510.7,4,398.2,4,259.4v-7.6C4,113,116.5,0.5,255.3,0.5h0
			c138.8,0,251.3,112.5,251.3,251.3v7.6C506.6,398.2,394.1,510.7,255.3,510.7z"/>
		<g>
			<path class="st1" d="M470,323l-62-56.3c-5.7-5.2-7.6-13.2-4.7-20.5c4.1-9.9,2.6-21.5-3.9-30.4l-47.1-63.9c0,0,0,0,0,0
				c8.2-13.7,31.4-59.6,11.4-109.9c-1.2-3-4.4-4.8-7.7-4c-1.8,0.4-3.3,1.6-4.2,3.2L350,44c-13.7,22.5-27.9,45.7-62.7,53c0,0,0,0,0,0
				c-0.4-19.7-3.7-43.4-15.8-58.3c-0.3-0.4-0.6-0.7-1-1c-2.7-2.2-6.3-1.9-8.6,0.2c-9.9,8.9-75.7,96.1-131.1,172
				c-36.2,49.6-71.5,106.6-91.6,147.1c-1.6,3.2-0.5,7.3,2.6,9.1c1,0.5,2.1,0.8,3.1,0.8c2.4,0,4.8-1.4,5.9-3.7
				c27.7-56.2,144.6-221.1,201.7-293.6c0,0,0.1,0,0.1,0c-5.1,16.1-12.4,32.1-21.7,47.8c-7.8,13-10.4,27.8-7.6,42.8
				c0.6,3.2,3.4,5.4,6.5,5.4c0.6,0,1.2-0.1,1.9-0.3c3.3-1,5.2-4.4,4.6-7.8c-2.1-11.8-0.1-23.1,6-33.3c12.2-20.5,21.1-41.5,26.4-62.7
				c0,0,0.1,0,0.1,0c9.3,27.2,3.5,67,3.4,67.5c-0.5,3.6,1.9,7,5.6,7.5c3.6,0.5,7-1.9,7.5-5.6c0.1-0.9,1.3-9,1.8-20.3c0,0,0,0,0,0
				c31.3-5.6,48.6-22,61.6-40c0,0,0.1,0,0.1,0c-2.8,21.5-8.7,47.8-19.9,59.6c-2.3,2.4-2.5,6.6-0.4,9.1c1.3,1.5,3.2,2.3,5,2.3
				c1.7,0,3.5-0.7,4.8-2c9.1-9.5,15.1-25.2,18.9-41.1c-4,28.9-18.1,49.8-18.3,50.1c-1.6,2.3-1.6,5.4,0.1,7.7l49.8,67.6
				c3.7,5,4.6,11.9,2.3,17.5c0,0,0,0.1-0.1,0.1c-4.9,12.5-1.7,26.3,8.1,35.2l62,56.3c2.1,1.9,3.2,4.4,3.3,7.2c0.1,2.8-1,5.4-3,7.4
				l-3.9,3.8c-27.9,27.6-70.5,34.8-106,18.1l-22.9-10.8c-17.6-8.3-37.9-7-54.3,3.4c-16.4,10.4-26.2,28.2-26.2,47.5v12.7
				c0,3.2,2.1,6.2,5.3,6.8c4.2,0.8,8-2.4,8-6.5v-13c0-14.8,7.5-28.4,20-36.4c12.6-8,28.2-9,41.6-2.6l22.9,10.8
				c14.5,6.9,30.1,10.2,45.6,10.2c27.7,0,55-10.6,75.4-30.8l3.9-3.8c4.5-4.5,7.1-10.7,6.9-17.1C477.5,333.3,474.8,327.3,470,323z"/>
			<circle class="st1" cx="338.9" cy="246.3" r="9.5"/>
		</g>
	</g>
</g>
</svg>
